<svg xmlns="http://www.w3.org/2000/svg" viewBox="0 0 64 64">
  <rect width="64" height="64" rx="12" fill="#f7f7f2"/>
  <path
    d="M14 46c6 2 30 2 38 0-7-1-13-2-18-4-1-3-3-5-7-7l2-7c3 2 8 4 13 4 3 0 5-1 6-2-2 5-9 7-17 4l-2 5c5 3 7 6 8 9-8 1-17 1-23-2Z"
    fill="#090909"
  />
  <path
    d="M19 31c-4 0-7-3-8-7 0 5 2 10 7 12 4 1 8 0 11-2l-1-5c-3 2-6 2-9 2Z"
    fill="#090909"
  />
  <path
    d="M28 23c0-3 2-5 5-5s5 2 5 5-2 5-5 5-5-2-5-5Zm-2 7h12l-2 7H24l2-7Z"
    fill="#090909"
  />
  <path
    d="M16 30c2-9 10-16 20-16 11 0 20 9 20 20 0 7-4 14-10 17"
    fill="none"
    stroke="#090909"
    stroke-width="2.2"
    stroke-linecap="round"
  />
</svg>
